<svg xmlns="http://www.w3.org/2000/svg" viewBox="0 0 460 335" role="img" aria-label="Grupo Mendoza Hnos. S.A.C.">
  <rect width="460" height="335" fill="#cbe8ef"/>
  <g transform="translate(92 42)">
    <polygon points="72,0 144,37 72,74 0,37" fill="#9cff00"/>
    <polygon points="74,40 146,77 74,114 2,77" fill="#0e9ee2"/>
    <polygon points="72,88 144,125 72,162 0,125" fill="#003e78"/>
    <polygon points="187,14 261,51 187,88 113,51" fill="#fff500"/>
    <polygon points="187,52 261,89 187,126 113,89" fill="#ff9100"/>
    <polygon points="187,89 261,126 187,164 113,126" fill="#e30000"/>
    <polygon points="72,40 113,61 72,82 31,61" fill="#1df2e4"/>
    <polygon points="187,52 228,73 187,94 146,73" fill="#ff9d00"/>
    <polygon points="187,91 228,112 187,134 146,112" fill="#ff4b12"/>
    <polygon points="72,84 113,105 72,126 31,105" fill="#33b9f0"/>
  </g>
  <text x="230" y="249" text-anchor="middle" font-family="Segoe UI, Arial, sans-serif" font-weight="800" font-size="48" fill="#082d63">Grupo Mendoza</text>
  <text x="230" y="295" text-anchor="middle" font-family="Segoe UI, Arial, sans-serif" font-weight="800" font-size="43" fill="#082d63">Hnos. S.A.C.</text>
</svg>
